{"asset":{"generator":"Khronos glTF Spline I/O v0.0.1","version":"2.0"},"scenes":[{"nodes":[0]}],"nodes":[{"name":"","children":[1,2,3,4],"matrix":[0.01,0,0,0,0,0.01,0,0,0,0,0.01,0,0,0,0,1]},{"name":"","camera":0,"translation":[35.080526001459816,-930.1617654853261,664.4603223713091],"rotation":[0.35747071378531386,0.0933469728163384,-0.035936387789292736,0.9285524258136972]},{"name":"Directional Light","translation":[200,300,300],"rotation":[-0.4062840720729887,0.12301291902225084,-0.2623788760260691,0.8665785595944042],"extensions":{"KHR_lights_punctual":{"light":0}}},{"name":"Deleted Components","matrix":[1,0,0,0,0,1,0,0,0,0,1,0,0,0,0,1]},{"name":"Bed","matrix":[1.808905546093165e-15,0,8.1465863433336,0,0,8.1465863433336,0,0,-8.1465863433336,0,1.808905546093165e-15,0,-246.67580357767065,-733.9539632630544,703.5017460599884,1],"children":[5,6,7,8,15,16]},{"name":"Cube 74","matrix":[0.02828386177278467,0,-1.6203813557325366,0,0,1.620628185254839,0,0,1.5993872342593696,0,0.027917408019359654,0,0.6506379772833384,-15.469453034571501,0.5946423103256677,1],"mesh":0},{"name":"Cube 15","matrix":[0.03026102508464205,0,-1.7336529660065911,0,0,1.2304769554712665,0,0,1.6506347874210183,0,0.02881193738720851,0,0.4437537099706219,-20.286493479665886,12.447034046686596,1],"mesh":1},{"name":"Empty Object","matrix":[0.015707589285783755,0,-0.8998871874942792,0,0,0.8828737552049061,0,0,0.8900700020009975,0,0.01553622967558617,0,-0.024124291099013817,-10.892868335165542,66.8150498884489,1]},{"name":"Empty Object 2","matrix":[1,0,0,0,0,1,0,0,0,0,1,0,-0.02018408243492331,0,-3.6000750027492927,1],"children":[9,10,11,12,13,14]},{"name":"Cube 12","matrix":[0.02828386177278466,0,-1.6203813557325362,0,0,1.620628185254839,0,0,1.5777397411079954,0,0.02753954962086927,0,0.6708220597182333,-29.324007766163128,4.194717313074989,1],"mesh":2},{"name":"Cube 14","matrix":[1.2900032362027146e-17,1.6206281852548385,-7.195938759230349e-16,0,-0.029048290469346396,7.197034902505621e-16,1.6203813557325355,0,1.5474383650907444,0,0.026299830894677138,0,2.070570968092426,-25.462265315614054,-70.37379497116133,1],"mesh":3},{"name":"Cube 12","matrix":[0.8900700020009975,0,0.015536229675585971,0,0,0.8828737552049061,0,0,-0.015707589285783558,0,0.8998871874942792,0,-0.022054073541369235,-14.688155840688182,70.41480871251072,1],"mesh":4},{"name":"Cube 15","matrix":[0.667572330288482,0,0.014400239187121761,0,0,0.882873755204906,0,0,-0.010157194417689065,0,0.8999155257493665,0,-37.15294796089368,-13.296319546622307,69.78970465598589,1],"mesh":5},{"name":"Cube 15","matrix":[0.578573261603476,0,0.013945842991736086,0,0,0.8828737552049062,0,0,-0.007937036470451278,0,0.8999268610514018,0,37.423042288108704,-13.296319546622279,71.02913002052293,1],"mesh":6},{"name":"Cylinder","matrix":[-4.543238975699092e-16,2.1829553402933644,2.9010021870836408e-15,0,-0.039127494747650156,-2.9082807366265593e-15,2.182622865621653,0,2.369704825532083,3.704997473594389e-16,0.04027484233799482,0,2.0768719498271366,-0.9986118873492593,-70.28370498277327,1],"mesh":7},{"name":"Cube 16","matrix":[0.006986873838669502,0.4944240637423611,-0.40028076309705973,0,-0.636047615537377,-0.0015571962867411643,-0.01302560662905769,0,-0.017059892472765847,0.6151295268975066,0.7595060096017037,0,2.354576732577698,3.662595184212897,-57.32476132850538,1],"mesh":8},{"name":"Cube 17","matrix":[0.018731172800573095,-1.1345078758885138e-13,-1.073108171052554,0,-1.0731081710525552,-8.685227757998203e-14,-0.018731172800573292,0,-1.118885057665287e-13,0.8148914269697626,-1.5132950194195041e-13,0,0.40749662255490193,-20.976941428127372,-35.41295474869379,1],"mesh":9}],"cameras":[{"type":"orthographic","orthographic":{"xmag":1920,"ymag":1009,"zfar":100000,"znear":-100000}}],"meshes":[{"primitives":[{"attributes":{"POSITION":1,"NORMAL":2,"TEXCOORD_0":3},"indices":0,"material":0}]},{"primitives":[{"attributes":{"POSITION":5,"NORMAL":6,"TEXCOORD_0":7},"indices":4,"material":1}]},{"primitives":[{"attributes":{"POSITION":9,"NORMAL":10,"TEXCOORD_0":11},"indices":8,"material":2}]},{"primitives":[{"attributes":{"POSITION":13,"NORMAL":14,"TEXCOORD_0":15},"indices":12,"material":3}]},{"primitives":[{"attributes":{"POSITION":17,"NORMAL":18,"TEXCOORD_0":19},"indices":16,"material":3}]},{"primitives":[{"attributes":{"POSITION":21,"NORMAL":22,"TEXCOORD_0":23},"indices":20,"material":3}]},{"primitives":[{"attributes":{"POSITION":25,"NORMAL":26,"TEXCOORD_0":27},"indices":24,"material":3}]},{"primitives":[{"attributes":{"POSITION":29,"NORMAL":30,"TEXCOORD_0":31},"indices":28,"material":3}]},{"primitives":[{"attributes":{"POSITION":33,"NORMAL":34,"TEXCOORD_0":35},"indices":32,"material":4}]},{"primitives":[{"attributes":{"POSITION":37,"NORMAL":38,"TEXCOORD_0":39},"indices":36,"material":5}]}],"materials":[{"pbrMetallicRoughness":{"baseColorFactor":[0.6509803921568628,0.6509803921568628,0.6509803921568628,1],"metallicFactor":0,"roughnessFactor":0.3},"doubleSided":false},{"pbrMetallicRoughness":{"baseColorFactor":[0.2901960784313726,0.26666666666666666,0.5215686274509804,1],"metallicFactor":0,"roughnessFactor":0.3},"doubleSided":false},{"pbrMetallicRoughness":{"baseColorFactor":[1,0.6196078431372549,0.25882352941176473,1],"metallicFactor":0,"roughnessFactor":0.97},"doubleSided":false},{"pbrMetallicRoughness":{"baseColorFactor":[0.7803921568627451,0.5490196078431373,0.32941176470588235,1],"metallicFactor":0,"roughnessFactor":1},"doubleSided":false},{"pbrMetallicRoughness":{"baseColorFactor":[0.8235294117647058,0.796078431372549,0.796078431372549,1],"metallicFactor":0,"roughnessFactor":0.97},"doubleSided":false},{"pbrMetallicRoughness":{"baseColorFactor":[0.26666666666666666,0.3686274509803922,0.5215686274509804,1],"metallicFactor":0,"roughnessFactor":0.3},"doubleSided":false}],"buffers":[{"uri":"data:application/octet-stream;base64,","byteLength":840},{"uri":"data:application/octet-stream;base64,","byteLength":23496},{"uri":"data:application/octet-stream;base64,","byteLength":840},{"uri":"data:application/octet-stream;base64,","byteLength":840},{"uri":"data:application/octet-stream;base64,","byteLength":840},{"uri":"data:application/octet-stream;base64,","byteLength":840},{"uri":"data:application/octet-stream;base64,","byteLength":840},{"uri":"data:application/octet-stream;base64,","byteLength":13952},{"uri":"data:application/octet-stream;base64,","byteLength":23496},{"uri":"data:application/octet-stream;base64,","byteLength":23496}],"bufferViews":[{"buffer":0,"byteOffset":0,"byteLength":72,"target":34963},{"buffer":0,"byteOffset":72,"byteLength":288,"target":34962},{"buffer":0,"byteOffset":360,"byteLength":288,"target":34962},{"buffer":0,"byteOffset":648,"byteLength":192,"target":34962},{"buffer":1,"byteOffset":0,"byteLength":4296,"target":34963},{"buffer":1,"byteOffset":4296,"byteLength":7200,"target":34962},{"buffer":1,"byteOffset":11496,"byteLength":7200,"target":34962},{"buffer":1,"byteOffset":18696,"byteLength":4800,"target":34962},{"buffer":2,"byteOffset":0,"byteLength":72,"target":34963},{"buffer":2,"byteOffset":72,"byteLength":288,"target":34962},{"buffer":2,"byteOffset":360,"byteLength":288,"target":34962},{"buffer":2,"byteOffset":648,"byteLength":192,"target":34962},{"buffer":3,"byteOffset":0,"byteLength":72,"target":34963},{"buffer":3,"byteOffset":72,"byteLength":288,"target":34962},{"buffer":3,"byteOffset":360,"byteLength":288,"target":34962},{"buffer":3,"byteOffset":648,"byteLength":192,"target":34962},{"buffer":4,"byteOffset":0,"byteLength":72,"target":34963},{"buffer":4,"byteOffset":72,"byteLength":288,"target":34962},{"buffer":4,"byteOffset":360,"byteLength":288,"target":34962},{"buffer":4,"byteOffset":648,"byteLength":192,"target":34962},{"buffer":5,"byteOffset":0,"byteLength":72,"target":34963},{"buffer":5,"byteOffset":72,"byteLength":288,"target":34962},{"buffer":5,"byteOffset":360,"byteLength":288,"target":34962},{"buffer":5,"byteOffset":648,"byteLength":192,"target":34962},{"buffer":6,"byteOffset":0,"byteLength":72,"target":34963},{"buffer":6,"byteOffset":72,"byteLength":288,"target":34962},{"buffer":6,"byteOffset":360,"byteLength":288,"target":34962},{"buffer":6,"byteOffset":648,"byteLength":192,"target":34962},{"buffer":7,"byteOffset":0,"byteLength":1536,"target":34963},{"buffer":7,"byteOffset":1536,"byteLength":4656,"target":34962},{"buffer":7,"byteOffset":6192,"byteLength":4656,"target":34962},{"buffer":7,"byteOffset":10848,"byteLength":3104,"target":34962},{"buffer":8,"byteOffset":0,"byteLength":4296,"target":34963},{"buffer":8,"byteOffset":4296,"byteLength":7200,"target":34962},{"buffer":8,"byteOffset":11496,"byteLength":7200,"target":34962},{"buffer":8,"byteOffset":18696,"byteLength":4800,"target":34962},{"buffer":9,"byteOffset":0,"byteLength":4296,"target":34963},{"buffer":9,"byteOffset":4296,"byteLength":7200,"target":34962},{"buffer":9,"byteOffset":11496,"byteLength":7200,"target":34962},{"buffer":9,"byteOffset":18696,"byteLength":4800,"target":34962}],"accessors":[{"bufferView":0,"byteOffset":0,"componentType":5123,"count":36,"type":"SCALAR","min":[0],"max":[23]},{"bufferView":1,"byteOffset":0,"componentType":5126,"count":24,"type":"VEC3","min":[-42.5,-5,-23.5],"max":[42.5,5,23.5]},{"bufferView":2,"byteOffset":0,"componentType":5126,"count":24,"type":"VEC3","min":[-1,-1,-1],"max":[1,1,1]},{"bufferView":3,"byteOffset":0,"componentType":5126,"count":24,"type":"VEC2","min":[0,0],"max":[1,1]},{"bufferView":4,"byteOffset":0,"componentType":5123,"count":2148,"type":"SCALAR","min":[0],"max":[599]},{"bufferView":5,"byteOffset":0,"componentType":5126,"count":600,"type":"VEC3","min":[-29.5,-14.5,-23],"max":[29.5,14.5,23]},{"bufferView":6,"byteOffset":0,"componentType":5126,"count":600,"type":"VEC3","min":[-1,-1,-1],"max":[1,1,1]},{"bufferView":7,"byteOffset":0,"componentType":5126,"count":600,"type":"VEC2","min":[0,0],"max":[1,1]},{"bufferView":8,"byteOffset":0,"componentType":5123,"count":36,"type":"SCALAR","min":[0],"max":[23]},{"bufferView":9,"byteOffset":0,"componentType":5126,"count":24,"type":"VEC3","min":[-42.5,-5,-23.5],"max":[42.5,5,23.5]},{"bufferView":10,"byteOffset":0,"componentType":5126,"count":24,"type":"VEC3","min":[-1,-1,-1],"max":[1,1,1]},{"bufferView":11,"byteOffset":0,"componentType":5126,"count":24,"type":"VEC2","min":[0,0],"max":[1,1]},{"bufferView":12,"byteOffset":0,"componentType":5123,"count":36,"type":"SCALAR","min":[0],"max":[23]},{"bufferView":13,"byteOffset":0,"componentType":5126,"count":24,"type":"VEC3","min":[-16,-4,-24.5],"max":[16,4,24.5]},{"bufferView":14,"byteOffset":0,"componentType":5126,"count":24,"type":"VEC3","min":[-1,-1,-1],"max":[1,1,1]},{"bufferView":15,"byteOffset":0,"componentType":5126,"count":24,"type":"VEC2","min":[0,0],"max":[1,1]},{"bufferView":16,"byteOffset":0,"componentType":5123,"count":36,"type":"SCALAR","min":[0],"max":[23]},{"bufferView":17,"byteOffset":0,"componentType":5126,"count":24,"type":"VEC3","min":[-45,-26,-5],"max":[45,26,5]},{"bufferView":18,"byteOffset":0,"componentType":5126,"count":24,"type":"VEC3","min":[-1,-1,-1],"max":[1,1,1]},{"bufferView":19,"byteOffset":0,"componentType":5126,"count":24,"type":"VEC2","min":[0,0],"max":[1,1]},{"bufferView":20,"byteOffset":0,"componentType":5123,"count":36,"type":"SCALAR","min":[0],"max":[23]},{"bufferView":21,"byteOffset":0,"componentType":5126,"count":24,"type":"VEC3","min":[-9,-40,-7],"max":[9,40,7]},{"bufferView":22,"byteOffset":0,"componentType":5126,"count":24,"type":"VEC3","min":[-1,-1,-1],"max":[1,1,1]},{"bufferView":23,"byteOffset":0,"componentType":5126,"count":24,"type":"VEC2","min":[0,0],"max":[1,1]},{"bufferView":24,"byteOffset":0,"componentType":5123,"count":36,"type":"SCALAR","min":[0],"max":[23]},{"bufferView":25,"byteOffset":0,"componentType":5126,"count":24,"type":"VEC3","min":[-10.5,-40,-7],"max":[10.5,40,7]},{"bufferView":26,"byteOffset":0,"componentType":5126,"count":24,"type":"VEC3","min":[-1,-1,-1],"max":[1,1,1]},{"bufferView":27,"byteOffset":0,"componentType":5126,"count":24,"type":"VEC2","min":[0,0],"max":[1,1]},{"bufferView":28,"byteOffset":0,"componentType":5123,"count":768,"type":"SCALAR","min":[0],"max":[387]},{"bufferView":29,"byteOffset":0,"componentType":5126,"count":388,"type":"VEC3","min":[0,-3,-16],"max":[16,3,16]},{"bufferView":30,"byteOffset":0,"componentType":5126,"count":388,"type":"VEC3","min":[0,-1,-1],"max":[1,1,1]},{"bufferView":31,"byteOffset":0,"componentType":5126,"count":388,"type":"VEC2","min":[0,0],"max":[1,1]},{"bufferView":32,"byteOffset":0,"componentType":5123,"count":2148,"type":"SCALAR","min":[0],"max":[599]},{"bufferView":33,"byteOffset":0,"componentType":5126,"count":600,"type":"VEC3","min":[-19,-40,-8],"max":[19,40,8]},{"bufferView":34,"byteOffset":0,"componentType":5126,"count":600,"type":"VEC3","min":[-1,-1,-1],"max":[1,1,1]},{"bufferView":35,"byteOffset":0,"componentType":5126,"count":600,"type":"VEC2","min":[0,0],"max":[1,1]},{"bufferView":36,"byteOffset":0,"componentType":5123,"count":2148,"type":"SCALAR","min":[0],"max":[599]},{"bufferView":37,"byteOffset":0,"componentType":5126,"count":600,"type":"VEC3","min":[-13.5,-38.5,-25],"max":[13.5,38.5,25]},{"bufferView":38,"byteOffset":0,"componentType":5126,"count":600,"type":"VEC3","min":[-1,-1,-1],"max":[1,1,1]},{"bufferView":39,"byteOffset":0,"componentType":5126,"count":600,"type":"VEC2","min":[0,0],"max":[1,1]}],"extensions":{"KHR_lights_punctual":{"lights":[{"type":"directional","name":"Directional Light","color":[1,1,1],"intensity":0.7}]}},"extensionsUsed":["KHR_lights_punctual"]}