<svg width="390" height="350" viewBox="0 0 390 350" fill="none" xmlns="http://www.w3.org/2000/svg">
<g filter="url(#filter0_i_482_5776)">
<path fill-rule="evenodd" clip-rule="evenodd" d="M390 349.529V245.529C390 210.183 361.346 181.529 326 181.529H63.3873C31.1142 181.529 4.3691 157.233 0 126.028V230.028C4.3691 261.233 31.1142 285.529 63.3873 285.529H326C361.346 285.529 390 314.183 390 349.529Z" fill="url(#paint0_linear_482_5776)"/>
</g>
<path fill-rule="evenodd" clip-rule="evenodd" d="M390 0H0V126.028C4.36914 157.232 31.1143 181.529 63.3872 181.529H326C358.454 181.529 385.266 205.686 389.437 237H390V0ZM1.37256 237C0.79126 234.721 0.331299 232.395 0 230.028V237H1.37256Z" fill="white"/>
<defs>
<filter id="filter0_i_482_5776" x="0" y="126.028" width="390" height="225.501" filterUnits="userSpaceOnUse" color-interpolation-filters="sRGB">
<feFlood flood-opacity="0" result="BackgroundImageFix"/>
<feBlend mode="normal" in="SourceGraphic" in2="BackgroundImageFix" result="shape"/>
<feColorMatrix in="SourceAlpha" type="matrix" values="0 0 0 0 0 0 0 0 0 0 0 0 0 0 0 0 0 0 127 0" result="hardAlpha"/>
<feOffset dy="4"/>
<feGaussianBlur stdDeviation="1"/>
<feComposite in2="hardAlpha" operator="arithmetic" k2="-1" k3="1"/>
<feColorMatrix type="matrix" values="0 0 0 0 0 0 0 0 0 0 0 0 0 0 0 0 0 0 0.1 0"/>
<feBlend mode="normal" in2="shape" result="effect1_innerShadow_482_5776"/>
</filter>
<linearGradient id="paint0_linear_482_5776" x1="365.5" y1="210" x2="322.796" y2="336.456" gradientUnits="userSpaceOnUse">
<stop offset="0.184054" stop-color="#A876E9"/>
<stop offset="0.442708" stop-color="#9F63ED"/>
<stop offset="0.760417" stop-color="#8D3DF3"/>
<stop offset="1" stop-color="#8429F7"/>
</linearGradient>
</defs>
</svg>
